<?xml version="1.0" encoding="UTF-8" standalone="no"?>
<!-- Generator: Adobe Illustrator 19.1.0, SVG Export Plug-In . SVG Version: 6.00 Build 0)  -->

<svg
   xmlns:dc="http://purl.org/dc/elements/1.1/"
   xmlns:cc="http://creativecommons.org/ns#"
   xmlns:rdf="http://www.w3.org/1999/02/22-rdf-syntax-ns#"
   xmlns:svg="http://www.w3.org/2000/svg"
   xmlns="http://www.w3.org/2000/svg"
   xmlns:sodipodi="http://sodipodi.sourceforge.net/DTD/sodipodi-0.dtd"
   xmlns:inkscape="http://www.inkscape.org/namespaces/inkscape"
   version="1.1"
   id="Capa_1"
   x="0px"
   y="0px"
   viewBox="0 0 484.3 484.3"
   style="enable-background:new 0 0 484.3 484.3;"
   xml:space="preserve"
   sodipodi:docname="revisions-solid.svg"
   inkscape:version="0.92.5 (2060ec1f9f, 2020-04-08)"><metadata
   id="metadata3839"><rdf:RDF><cc:Work
       rdf:about=""><dc:format>image/svg+xml</dc:format><dc:type
         rdf:resource="http://purl.org/dc/dcmitype/StillImage" /><dc:title></dc:title></cc:Work></rdf:RDF></metadata><defs
   id="defs3837" /><sodipodi:namedview
   pagecolor="#ffffff"
   bordercolor="#666666"
   borderopacity="1"
   objecttolerance="10"
   gridtolerance="10"
   guidetolerance="10"
   inkscape:pageopacity="0"
   inkscape:pageshadow="2"
   inkscape:window-width="1920"
   inkscape:window-height="1015"
   id="namedview3835"
   showgrid="false"
   inkscape:zoom="0.60373459"
   inkscape:cx="263.8996"
   inkscape:cy="148.37303"
   inkscape:window-x="1920"
   inkscape:window-y="0"
   inkscape:window-maximized="1"
   inkscape:current-layer="g3800" />
<g
   id="g3802">
	<g
   id="g3800">
		<path
   d="m 262.198,0 c -28.1,0 -55.1,6.1 -80.3,18 -32,14.9 -59.1,38.4 -78.4,68 -19.9,30.5 -30.4,65.8 -30.4,102.3 V 214 l -34,65 c -6.5,12.5 -6.8,25.3 -0.8,35.3 6,10 17.5,15.7 31.6,15.7 h 3.2 v 51.1 c 0,27.7 22.5,50.2 50.2,50.2 0.7,0 1.3,0 2,-0.1 l 34.9,-5.2 v 35.1 c 0,0.5 0,1.1 0.1,1.6 1,12.4 11,21.6 23.7,21.6 v 0 c 1.5,0 3,-0.1 4.6,-0.4 l 181.5,-32.2 c 13.2,-2.3 23.6,-14.7 23.6,-28.1 v -101 c 36.1,-35.3 56.6,-84 56.6,-134.5 C 450.298,84.4 365.898,0 262.198,0 Z m 83.22372,166.60831 c -2.8,2.6 -75.02805,47.47317 -73.23607,50.71027 L 379.84886,411.8055 C 384.71793,346.05122 233.28945,146.53203 264.26023,148.38838 l -40.72238,260.07727 37.99621,-8.40379 c 0,-3.9 0.37421,-86.43093 -2.62579,-88.93093 -2.5,-2.1 -37.48863,-4.07421 -40.68863,-4.07421 -0.7,0 64.95428,29.81443 64.25428,29.91443 L 226.54849,210.10623 c -12.4,-0.5 54.65978,124.2247 32.35978,101.0247 v 0 c 0,0 56.29074,-55.16569 49.44157,-58.22164 L 185.84299,198.24951 c -4.65744,-2.07804 -99.420552,55.2396 -44.93986,73.59242 32.02951,10.78973 14.10722,43.73435 16.50722,39.23435 l 113.44878,-16.55293 c 1,-1.9 256.04037,-180.3663 16.40721,-147.09034 l 44.72164,85.28863 c 28.97775,55.26346 -14.74707,-99.72372 41.85293,-126.02372 L 229.83785,161.3577 c 21.5,-10 -13.27249,64.40514 10.82751,64.40514 88.8,0 -47.60098,-171.184478 -47.60098,-82.38448 0,45 185.55734,-7.17005 152.35734,23.22995 z"
   id="path3796"
   style="fill:#000000;fill-opacity:1"
   inkscape:connector-curvature="0"
   sodipodi:nodetypes="sccsccsscssccscccccscsscscccccscccsssscccsccssc" />
		
	<g
   id="g4003"
   transform="translate(-102.04633,-54.077672)"
   style="fill:#ffffff;fill-opacity:1"><g
     id="g3942"
     style="fill:#ffffff;fill-opacity:1">
	
<g
   id="g4152"
   transform="matrix(0.42609917,0,0,0.42609917,271.24069,122.94005)"
   style="fill:#ffffff;fill-opacity:1"><g
     id="g4094"
     style="fill:#ffffff;fill-opacity:1">
	<g
   id="g4092"
   style="fill:#ffffff;fill-opacity:1">
		<path
   id="path4088"
   d="m 122.941,374.241 c -20.1,-18.1 -34.6,-39.8 -44.1,-63.1 -25.2,-61.8 -13.4,-135.3 35.8,-186 l 45.4,45.4 c 2.5,2.5 7,0.7 7.6,-3 l 24.8,-162.3 c 0.4,-2.7 -1.9,-5 -4.6,-4.6 l -162.4,24.8 c -3.7,0.6 -5.5,5.1 -3,7.6 l 45.5,45.5 c -75.1,76.8 -87.9,192 -38.6,282 14.8,27.1 35.3,51.9 61.4,72.7 44.4,35.3 99,52.2 153.2,51.1 l 10.2,-66.7 c -46.7,4 -94.7,-10.4 -131.2,-43.4 z"
   inkscape:connector-curvature="0"
   style="fill:#ffffff;fill-opacity:1" />
		<path
   id="path4090"
   d="m 424.941,414.341 c 75.1,-76.8 87.9,-192 38.6,-282 -14.8,-27.1 -35.3,-51.9 -61.4,-72.7 -44.4,-35.3 -99,-52.2 -153.2,-51.1 l -10.2,66.7 c 46.6,-4 94.7,10.4 131.2,43.4 20.1,18.1 34.6,39.8 44.1,63.1 25.2,61.8 13.4,135.3 -35.8,186 l -45.4,-45.4 c -2.5,-2.5 -7,-0.7 -7.6,3 l -24.8,162.3 c -0.4,2.7 1.9,5 4.6,4.6 l 162.4,-24.8 c 3.7,-0.6 5.4,-5.1 3,-7.6 z"
   inkscape:connector-curvature="0"
   style="fill:#ffffff;fill-opacity:1" />
	</g>
</g><g
     id="g4096"
     style="fill:#ffffff;fill-opacity:1">
</g><g
     id="g4098"
     style="fill:#ffffff;fill-opacity:1">
</g><g
     id="g4100"
     style="fill:#ffffff;fill-opacity:1">
</g><g
     id="g4102"
     style="fill:#ffffff;fill-opacity:1">
</g><g
     id="g4104"
     style="fill:#ffffff;fill-opacity:1">
</g><g
     id="g4106"
     style="fill:#ffffff;fill-opacity:1">
</g><g
     id="g4108"
     style="fill:#ffffff;fill-opacity:1">
</g><g
     id="g4110"
     style="fill:#ffffff;fill-opacity:1">
</g><g
     id="g4112"
     style="fill:#ffffff;fill-opacity:1">
</g><g
     id="g4114"
     style="fill:#ffffff;fill-opacity:1">
</g><g
     id="g4116"
     style="fill:#ffffff;fill-opacity:1">
</g><g
     id="g4118"
     style="fill:#ffffff;fill-opacity:1">
</g><g
     id="g4120"
     style="fill:#ffffff;fill-opacity:1">
</g><g
     id="g4122"
     style="fill:#ffffff;fill-opacity:1">
</g><g
     id="g4124"
     style="fill:#ffffff;fill-opacity:1">
</g></g></g><g
     id="g3944"
     style="fill:#ffffff;fill-opacity:1">
</g><g
     id="g3946"
     style="fill:#ffffff;fill-opacity:1">
</g><g
     id="g3948"
     style="fill:#ffffff;fill-opacity:1">
</g><g
     id="g3950"
     style="fill:#ffffff;fill-opacity:1">
</g><g
     id="g3952"
     style="fill:#ffffff;fill-opacity:1">
</g><g
     id="g3954"
     style="fill:#ffffff;fill-opacity:1">
</g><g
     id="g3956"
     style="fill:#ffffff;fill-opacity:1">
</g><g
     id="g3958"
     style="fill:#ffffff;fill-opacity:1">
</g><g
     id="g3960"
     style="fill:#ffffff;fill-opacity:1">
</g><g
     id="g3962"
     style="fill:#ffffff;fill-opacity:1">
</g><g
     id="g3964"
     style="fill:#ffffff;fill-opacity:1">
</g><g
     id="g3966"
     style="fill:#ffffff;fill-opacity:1">
</g><g
     id="g3968"
     style="fill:#ffffff;fill-opacity:1">
</g><g
     id="g3970"
     style="fill:#ffffff;fill-opacity:1">
</g><g
     id="g3972"
     style="fill:#ffffff;fill-opacity:1">
</g></g></g>
</g>
<g
   id="g3804">
</g>
<g
   id="g3806">
</g>
<g
   id="g3808">
</g>
<g
   id="g3810">
</g>
<g
   id="g3812">
</g>
<g
   id="g3814">
</g>
<g
   id="g3816">
</g>
<g
   id="g3818">
</g>
<g
   id="g3820">
</g>
<g
   id="g3822">
</g>
<g
   id="g3824">
</g>
<g
   id="g3826">
</g>
<g
   id="g3828">
</g>
<g
   id="g3830">
</g>
<g
   id="g3832">
</g>
</svg>