<?xml version="1.0" encoding="UTF-8" standalone="no"?>
<!-- Generator: Adobe Illustrator 19.1.0, SVG Export Plug-In . SVG Version: 6.00 Build 0)  -->

<svg
   xmlns:dc="http://purl.org/dc/elements/1.1/"
   xmlns:cc="http://creativecommons.org/ns#"
   xmlns:rdf="http://www.w3.org/1999/02/22-rdf-syntax-ns#"
   xmlns:svg="http://www.w3.org/2000/svg"
   xmlns="http://www.w3.org/2000/svg"
   xmlns:sodipodi="http://sodipodi.sourceforge.net/DTD/sodipodi-0.dtd"
   xmlns:inkscape="http://www.inkscape.org/namespaces/inkscape"
   version="1.1"
   id="Capa_1"
   x="0px"
   y="0px"
   viewBox="0 0 484.3 484.3"
   style="enable-background:new 0 0 484.3 484.3;"
   xml:space="preserve"
   sodipodi:docname="revisions-regular.svg"
   inkscape:version="0.92.5 (2060ec1f9f, 2020-04-08)"><metadata
   id="metadata3839"><rdf:RDF><cc:Work
       rdf:about=""><dc:format>image/svg+xml</dc:format><dc:type
         rdf:resource="http://purl.org/dc/dcmitype/StillImage" /><dc:title></dc:title></cc:Work></rdf:RDF></metadata><defs
   id="defs3837" /><sodipodi:namedview
   pagecolor="#ffffff"
   bordercolor="#666666"
   borderopacity="1"
   objecttolerance="10"
   gridtolerance="10"
   guidetolerance="10"
   inkscape:pageopacity="0"
   inkscape:pageshadow="2"
   inkscape:window-width="1920"
   inkscape:window-height="1015"
   id="namedview3835"
   showgrid="false"
   inkscape:zoom="0.42690482"
   inkscape:cx="589.3418"
   inkscape:cy="232.28506"
   inkscape:window-x="1920"
   inkscape:window-y="0"
   inkscape:window-maximized="1"
   inkscape:current-layer="g3942" />
<g
   id="g3802">
	<g
   id="g3800">
		<path
   d="M262.198,0c-28.1,0-55.1,6.1-80.3,18c-32,14.9-59.1,38.4-78.4,68c-19.9,30.5-30.4,65.8-30.4,102.3V214l-34,65    c-6.5,12.5-6.8,25.3-0.8,35.3s17.5,15.7,31.6,15.7h3.2v51.1c0,27.7,22.5,50.2,50.2,50.2c0.7,0,1.3,0,2-0.1l34.9-5.2v35.1    c0,0.5,0,1.1,0.1,1.6c1,12.4,11,21.6,23.7,21.6l0,0c1.5,0,3-0.1,4.6-0.4l181.5-32.2c13.2-2.3,23.6-14.7,23.6-28.1v-101    c36.1-35.3,56.6-84,56.6-134.5C450.298,84.4,365.898,0,262.198,0z M370.998,306.8c-2.8,2.6-4.4,6.2-4.4,9.9v106.7    c-0.1,0.5-0.8,1.4-1.3,1.6l-178.2,31.5l-0.1-46.5c0-3.9-1.7-7.7-4.7-10.2c-2.5-2.1-5.6-3.3-8.8-3.3c-0.7,0-1.3,0-2,0.1l-49.3,7.3    c-12.4-0.5-22.3-10.7-22.3-23.2v-64.6c0-7.5-6-13.5-13.5-13.5h-16.5c-5.1,0-7.8-1.4-8.5-2.6s-0.8-4.3,1.6-8.8l35.6-67.9    c1-1.9,1.5-4.1,1.5-6.3v-29c0-62.4,36.6-119.6,93.2-145.9h0.1c21.5-10,44.7-15.1,68.8-15.1c88.8,0,161.1,72.3,161.1,161.1    C423.298,233.1,404.198,276.4,370.998,306.8z"
   id="path3796" />
		
	<g
   id="g4003"
   transform="translate(-106.5502,-49.160188)"><g
     id="g3942">
	
<g
   id="g4152"
   transform="matrix(0.42609917,0,0,0.42609917,271.24069,122.94005)"><g
     id="g4094">
	<g
   id="g4092">
		<path
   id="path4088"
   d="m 122.941,374.241 c -20.1,-18.1 -34.6,-39.8 -44.1,-63.1 -25.2,-61.8 -13.4,-135.3 35.8,-186 l 45.4,45.4 c 2.5,2.5 7,0.7 7.6,-3 l 24.8,-162.3 c 0.4,-2.7 -1.9,-5 -4.6,-4.6 l -162.4,24.8 c -3.7,0.6 -5.5,5.1 -3,7.6 l 45.5,45.5 c -75.1,76.8 -87.9,192 -38.6,282 14.8,27.1 35.3,51.9 61.4,72.7 44.4,35.3 99,52.2 153.2,51.1 l 10.2,-66.7 c -46.7,4 -94.7,-10.4 -131.2,-43.4 z"
   inkscape:connector-curvature="0" />
		<path
   id="path4090"
   d="m 424.941,414.341 c 75.1,-76.8 87.9,-192 38.6,-282 -14.8,-27.1 -35.3,-51.9 -61.4,-72.7 -44.4,-35.3 -99,-52.2 -153.2,-51.1 l -10.2,66.7 c 46.6,-4 94.7,10.4 131.2,43.4 20.1,18.1 34.6,39.8 44.1,63.1 25.2,61.8 13.4,135.3 -35.8,186 l -45.4,-45.4 c -2.5,-2.5 -7,-0.7 -7.6,3 l -24.8,162.3 c -0.4,2.7 1.9,5 4.6,4.6 l 162.4,-24.8 c 3.7,-0.6 5.4,-5.1 3,-7.6 z"
   inkscape:connector-curvature="0" />
	</g>
</g><g
     id="g4096">
</g><g
     id="g4098">
</g><g
     id="g4100">
</g><g
     id="g4102">
</g><g
     id="g4104">
</g><g
     id="g4106">
</g><g
     id="g4108">
</g><g
     id="g4110">
</g><g
     id="g4112">
</g><g
     id="g4114">
</g><g
     id="g4116">
</g><g
     id="g4118">
</g><g
     id="g4120">
</g><g
     id="g4122">
</g><g
     id="g4124">
</g></g></g><g
     id="g3944">
</g><g
     id="g3946">
</g><g
     id="g3948">
</g><g
     id="g3950">
</g><g
     id="g3952">
</g><g
     id="g3954">
</g><g
     id="g3956">
</g><g
     id="g3958">
</g><g
     id="g3960">
</g><g
     id="g3962">
</g><g
     id="g3964">
</g><g
     id="g3966">
</g><g
     id="g3968">
</g><g
     id="g3970">
</g><g
     id="g3972">
</g></g></g>
</g>
<g
   id="g3804">
</g>
<g
   id="g3806">
</g>
<g
   id="g3808">
</g>
<g
   id="g3810">
</g>
<g
   id="g3812">
</g>
<g
   id="g3814">
</g>
<g
   id="g3816">
</g>
<g
   id="g3818">
</g>
<g
   id="g3820">
</g>
<g
   id="g3822">
</g>
<g
   id="g3824">
</g>
<g
   id="g3826">
</g>
<g
   id="g3828">
</g>
<g
   id="g3830">
</g>
<g
   id="g3832">
</g>
</svg>